<svg xmlns="http://www.w3.org/2000/svg" xmlns:xlink="http://www.w3.org/1999/xlink" width="200" height="200" viewBox="0 0 200 200" fill="none">
<rect x="0" y="0" width="0" height="0" fill="rgba(249, 249, 249, 1)" />
<path     fill="#FFFFFF"  d="M0 200L200 200L200 0L0 0L0 200Z">
</path>
<g >
<path     fill="#000000"  d="M140.688 116.712L140.688 151.92L130.896 151.92L130.896 103.896L144 103.896L163.08 139.68L163.08 103.896L172.8 103.896L172.8 151.92L160.272 151.92L140.688 116.712Z">
</path>
</g>
<g >
<path     fill="#0064FF"  d="M91.896 151.92L91.896 103.896L102.12 103.896L102.12 151.92L91.896 151.92Z">
</path>
</g>
<g >
<path     fill="#000000"  d="M64.4 143.352L64.4 151.92L47.624 151.92Q42.872 151.92 40.352 151.416Q31.496 149.688 27.752 141.552Q25.304 136.08 25.304 128.016Q25.304 118.368 29.048 112.32Q31.784 107.928 36.356 105.912Q40.928 103.896 48.128 103.896L64.4 103.896L64.4 112.464L49.28 112.464Q42.44 112.464 39.272 116.136Q36.608 119.16 36.608 127.08Q36.608 137.736 40.712 141.048Q43.592 143.352 49.712 143.352L64.4 143.352Z">
</path>
</g>
<g >
<path     fill="#000000"  d="M140.688 59.712L140.688 94.92L130.896 94.92L130.896 46.896L144 46.896L163.08 82.68L163.08 46.896L172.8 46.896L172.8 94.92L160.272 94.92L140.688 59.712Z">
</path>
</g>
<g >
<path     fill="#0064FF"  d="M71.216 94.92L91.088 46.896L102.824 46.896L122.696 94.92L110.744 94.92L106.064 83.832L87.848 83.832L83.168 94.92L71.216 94.92ZM96.992 58.488L90.152 75.264L103.832 75.264L96.992 58.488Z">
</path>
</g>
<g >
<path     fill="#000000"  d="M64.4 86.352L64.4 94.92L47.624 94.92Q42.872 94.92 40.352 94.416Q31.496 92.688 27.752 84.552Q25.304 79.08 25.304 71.016Q25.304 61.368 29.048 55.32Q31.784 50.928 36.356 48.912Q40.928 46.896 48.128 46.896L64.4 46.896L64.4 55.464L49.28 55.464Q42.44 55.464 39.272 59.136Q36.608 62.16 36.608 70.08Q36.608 80.736 40.712 84.048Q43.592 86.352 49.712 86.352L64.4 86.352Z">
</path>
</g>
</svg>
