<svg xmlns="http://www.w3.org/2000/svg" xmlns:xlink="http://www.w3.org/1999/xlink" width="200" height="200" viewBox="0 0 200 200" fill="none">
<rect x="0" y="0" width="0" height="0" fill="rgba(249, 249, 249, 1)" />
<path     fill="#FFFFFF"  d="M0 200L200 200L200 0L0 0L0 200Z">
</path>
<g >
<path     fill="#000000"  d="M39.6 110.568L39.6 116.28L28.416 116.28Q25.248 116.28 23.568 115.944Q17.664 114.792 15.168 109.368Q13.536 105.72 13.536 100.344Q13.536 93.912 16.032 89.88Q17.856 86.952 20.904 85.608Q23.952 84.264 28.752 84.264L39.6 84.264L39.6 89.976L29.52 89.976Q24.96 89.976 22.848 92.424Q21.072 94.44 21.072 99.72Q21.072 106.824 23.808 109.032Q25.728 110.568 29.808 110.568L39.6 110.568Z">
</path>
</g>
<g >
<path     fill="#0064FF"  d="M43.144 116.28L56.392 84.264L64.216 84.264L77.464 116.28L69.496 116.28L66.376 108.888L54.232 108.888L51.112 116.28L43.144 116.28ZM60.328 91.992L55.768 103.176L64.888 103.176L60.328 91.992Z">
</path>
</g>
<g >
<path     fill="#000000"  d="M139.6 110.568L139.6 116.28L128.416 116.28Q125.248 116.28 123.568 115.944Q117.664 114.792 115.168 109.368Q113.536 105.72 113.536 100.344Q113.536 93.912 116.032 89.88Q117.856 86.952 120.904 85.608Q123.952 84.264 128.752 84.264L139.6 84.264L139.6 89.976L129.52 89.976Q124.96 89.976 122.848 92.424Q121.072 94.44 121.072 99.72Q121.072 106.824 123.808 109.032Q125.728 110.568 129.808 110.568L139.6 110.568Z">
</path>
</g>
<g >
<path     fill="#000000"  d="M87.792 92.808L87.792 116.28L81.264 116.28L81.264 84.264L90 84.264L102.72 108.12L102.72 84.264L109.2 84.264L109.2 116.28L100.848 116.28L87.792 92.808Z">
</path>
</g>
<g >
<path     fill="#0064FF"  d="M144.264 116.28L144.264 84.264L151.08 84.264L151.08 116.28L144.264 116.28Z">
</path>
</g>
<g >
<path     fill="#000000"  d="M162.792 92.808L162.792 116.28L156.264 116.28L156.264 84.264L165 84.264L177.72 108.12L177.72 84.264L184.2 84.264L184.2 116.28L175.848 116.28L162.792 92.808Z">
</path>
</g>
</svg>
